<?xml version="1.0" encoding="UTF-8"?>
<svg id="Layer_1" xmlns="http://www.w3.org/2000/svg" version="1.1" viewBox="0 0 465.1219 239.746">
  <!-- Generator: Adobe Illustrator 29.4.0, SVG Export Plug-In . SVG Version: 2.1.0 Build 152)  -->
  <defs>
    <style>
      .st0 {
        fill: #ff88bd;
      }
    </style>
  </defs>
  <path class="st0" d="M221.7309,65.1603c5.235-3.27,8.73-9.105,8.73-15.7351,0-10.245-8.31-18.5551-18.5551-18.5551h-38.3702v70.4403h42.1352c10.26,0,18.5851-8.325,18.5851-18.5851,0-8.145-5.235-15.0601-12.525-17.5801M195.0158,48.3302h6.855c2.04,0,3.705,2.115,3.705,4.74s-1.665,4.74-3.705,4.74h-6.855v-9.48ZM205.5009,85.8454h-10.41v-10.305h10.41c2.28,0,4.14,2.31,4.14,5.145s-1.845,5.145-4.14,5.145"/>
  <polygon class="st0" points="312.6313 30.8701 301.7113 61.9053 293.4312 30.8701 274.1261 30.8701 265.8461 61.9053 254.9261 30.8701 228.901 30.8701 253.471 101.3254 274.6661 101.3254 283.7712 67.0353 292.8762 101.3254 314.0863 101.3254 338.6564 30.8701 312.6313 30.8701"/>
  <polygon class="st0" points="385.3516 30.8701 341.6864 30.8701 333.7664 53.5802 346.3064 53.5802 346.3064 101.3254 371.9116 101.3254 371.9116 53.5802 385.3516 53.5802 385.3516 30.8701"/>
  <path class="st0" d="M156.1056,66.1053c0,21.0751-17.0851,38.1602-38.1602,38.1602s-38.1602-17.0851-38.1602-38.1602V0l11.385,6.57v59.5202c0,14.7901,11.985,26.7751,26.7751,26.7751s26.7751-11.9851,26.7751-26.7751c0-5.115-1.44-9.9-3.93-13.9651-2.295-3.735-5.46-6.855-9.24-9.09l-.375-.225-18.8701-10.905v-13.1401l24.7051,14.2651c11.4001,6.6,19.0801,18.9301,19.0801,33.0601"/>
  <path class="st0" d="M141.4656,66.1053c0,12.9901-10.53,23.5201-23.5201,23.5201s-23.5201-10.53-23.5201-23.5201V8.46l11.385,6.57v51.0752c0,6.705,5.43,12.1351,12.135,12.1351s12.1351-5.43,12.1351-12.1351c0-4.5-2.445-8.415-6.075-10.515h-.015l-11.685-6.75v-13.1401l6.315,3.645,10.92,6.3.15.09.105.06c6.975,4.08,11.6551,11.655,11.6551,20.3101"/>
  <path d="M62.5653,175.9957h12.7051l-37.6352-41.1152L0,175.9957h12.7051l6.72-7.575h36.4352l6.72,7.575h-.015ZM37.6202,147.9756l11.79,13.2751h-23.5801l11.79-13.2751ZM183.6758,143.3106h32.6851c6.495,0,8.49,1.995,8.49,6.21,0,3.705-2.79,5.97-8.43,5.97h-32.7451v-12.1801h0ZM275.4611,136.1406h-10.755v39.8552h10.755v-39.8552ZM365.0265,136.1406v24.6001l-44.5202-24.6001h-10.875v39.8552h9.96v-29.4451l55.5152,30.5701v-40.9952h-10.08v.015ZM172.9057,136.1406v39.8552h10.7551v-13.3201h34.7851c12.93,0,17.9401-5.415,17.9401-13.4401s-5.46-13.095-17.4301-13.095h-46.0652.015ZM109.1255,168.8257v-32.6851h-10.755v39.8552h48.9152l3.015-7.17h-41.1752ZM420.0168,168.8257v-9.51h43.6802v-7.17h-43.6802v-8.835h43.6802v-7.17h-54.4352v39.8552h53.8652l1.995-7.17h-45.1052ZM49.8902,208.4559h12.8851c.09,0,.165.09.165.165v2.745c0,.09-.09.165-.165.165h-9.795s-.09.045-.09.09v9.705s.045.09.09.09h9.36c.09,0,.165.09.165.165v2.745c0,.09-.09.165-.165.165h-9.36s-.09.045-.09.09v14.3401c0,.09-.09.165-.165.165h-2.835c-.09,0-.165-.09-.165-.165v-30.3301c0-.09.09-.165.165-.165v.03ZM69.0153,228.736v-9.8851c0-7.26,3.225-10.995,8.295-10.995s8.295,3.615,8.295,10.83v10.2301c0,7.215-3.225,10.83-8.295,10.83s-8.295-3.735-8.295-10.995v-.015ZM82.4253,228.901v-10.2301c0-5.325-1.98-7.725-5.115-7.725s-5.115,2.4-5.115,7.725v10.2301c0,5.325,1.98,7.725,5.115,7.725s5.115-2.4,5.115-7.725ZM93.1504,208.4559h6.96c4.935,0,8.115,3.27,8.115,8.895,0,4.26-1.8,7.125-4.89,8.3401-.045.045-.045.09-.045.135l5.67,13.095c.045.09,0,.21-.135.21h-3.135c-.09,0-.135-.045-.165-.135l-5.415-12.5851s-.09-.09-.135-.09h-3.735s-.09.045-.09.09v12.5401c0,.09-.09.165-.165.165h-2.835c-.09,0-.165-.09-.165-.165v-30.3301c0-.09.09-.165.165-.165h0ZM96.2404,223.2309h3.435c3.39,0,5.37-2.025,5.37-5.88s-1.8-5.805-4.935-5.805h-3.87s-.09.045-.09.09v11.505s.045.09.09.09ZM124.3955,238.966l-5.37-26.2951h-.09v26.2951c0,.09-.09.165-.165.165h-2.835c-.09,0-.165-.09-.165-.165v-30.3301c0-.09.09-.165.165-.165h5.37c.09,0,.21.09.21.165l4.77,24.7051c0,.09.09.09.09,0l4.815-24.7051c0-.09.12-.165.21-.165h5.325c.09,0,.165.09.165.165v30.3301c0,.09-.09.165-.165.165h-2.835c-.09,0-.165-.09-.165-.165v-26.0701h-.09l-5.325,26.0701c0,.09-.135.165-.21.165h-3.48c-.09,0-.21-.09-.21-.165h-.015ZM144.2856,230.761v-22.1251c0-.09.09-.165.165-.165h2.835c.09,0,.165.09.165.165v22.1251c0,3.525,1.68,5.88,4.89,5.88s4.905-2.355,4.905-5.88v-22.1251c0-.09.09-.165.165-.165h2.835c.09,0,.165.09.165.165v22.1251c0,5.415-3.135,8.985-8.07,8.985s-8.07-3.435-8.07-8.985h.015ZM167.8357,238.966v-30.3301c0-.09.09-.165.165-.165h2.835c.09,0,.165.09.165.165v27.3151s.045.09.09.09h10.23c.135,0,.21.135.165.21l-.855,2.745c-.045.135-.09.135-.165.135h-12.465c-.09,0-.165-.09-.165-.165ZM198.2558,208.6359l6.75,30.3301c.045.09-.09.165-.165.165h-3.015c-.09,0-.21-.09-.21-.165l-1.455-6.705c0-.09-.045-.09-.09-.09h-8.505s-.09,0-.09.09l-1.455,6.705c0,.09-.135.165-.21.165h-2.88c-.09,0-.21-.09-.165-.165l6.75-30.3301c0-.09.135-.165.21-.165h4.335c.09,0,.21.09.21.165h-.015ZM192.1958,229.081h7.215s.09,0,.09-.09l-3.645-17.0101c0-.09-.09-.09-.09,0l-3.645,17.0101c0,.09.045.09.09.09h-.015ZM226.486,228.736v-9.8851c0-7.26,3.225-10.995,8.295-10.995s8.295,3.615,8.295,10.83v10.2301c0,7.215-3.225,10.83-8.295,10.83s-8.295-3.735-8.295-10.995v-.015ZM239.896,228.901v-10.2301c0-5.325-1.98-7.725-5.115-7.725s-5.115,2.4-5.115,7.725v10.2301c0,5.325,1.98,7.725,5.115,7.725s5.115-2.4,5.115-7.725ZM262.5761,239.011l-9.195-25.1251s-.09-.045-.09.045v25.0501c0,.09-.09.165-.165.165h-2.49c-.09,0-.165-.09-.165-.165v-30.3301c0-.09.09-.165.165-.165h3.87c.09,0,.135,0,.165.135l9.495,25.9501s.09.045.09-.045v-25.8601c0-.09.09-.165.165-.165h2.49c.09,0,.165.09.165.165v30.3301c0,.09-.09.165-.165.165h-4.17c-.09,0-.12,0-.165-.135v-.015ZM274.4861,238.966v-30.3301c0-.09.09-.165.165-.165h12.885c.09,0,.165.09.165.165v2.745c0,.09-.09.165-.165.165h-9.795s-.09.045-.09.09v9.705s.045.09.09.09h9.36c.09,0,.165.09.165.165v2.745c0,.09-.09.165-.165.165h-9.36s-.09.045-.09.09v11.34s.045.09.09.09h10.23c.135,0,.21.135.165.21l-.855,2.745c-.045.135-.09.135-.165.135h-12.465c-.09,0-.165-.09-.165-.165v.015ZM334.4714,238.966v-27.3151s-.045-.09-.09-.09h-5.58c-.09,0-.165-.09-.165-.165v-2.745c0-.09.09-.165.165-.165h14.5201c.09,0,.165.09.165.165v2.745c0,.09-.09.165-.165.165h-5.58s-.09.045-.09.09v27.3151c0,.09-.09.165-.165.165h-2.835c-.09,0-.165-.09-.165-.165h-.015ZM349.9815,238.966v-30.3301c0-.09.09-.165.165-.165h12.8851c.09,0,.165.09.165.165v2.745c0,.09-.09.165-.165.165h-9.795s-.09.045-.09.09v9.705s.045.09.09.09h9.36c.09,0,.165.09.165.165v2.745c0,.09-.09.165-.165.165h-9.36s-.09.045-.09.09v11.34s.045.09.09.09h10.23c.135,0,.21.135.165.21l-.855,2.745c-.045.135-.09.135-.165.135h-12.4651c-.09,0-.165-.09-.165-.165v.015ZM380.8666,208.6359l6.75,30.3301c.045.09-.09.165-.165.165h-3.015c-.09,0-.21-.09-.21-.165l-1.455-6.705c0-.09-.045-.09-.09-.09h-8.505s-.09,0-.09.09l-1.455,6.705c0,.09-.135.165-.21.165h-2.88c-.09,0-.21-.09-.165-.165l6.75-30.3301c0-.09.135-.165.21-.165h4.335c.09,0,.21.09.21.165h-.015ZM374.8066,229.081h7.215s.09,0,.09-.09l-3.645-17.0101c0-.09-.09-.09-.09,0l-3.645,17.0101c0,.09.045.09.09.09h-.015ZM402.9167,238.966l-5.37-26.2951h-.09v26.2951c0,.09-.09.165-.165.165h-2.835c-.09,0-.165-.09-.165-.165v-30.3301c0-.09.09-.165.165-.165h5.37c.09,0,.21.09.21.165l4.77,24.7051c0,.09.09.09.09,0l4.8151-24.7051c0-.09.12-.165.21-.165h5.325c.09,0,.165.09.165.165v30.3301c0,.09-.09.165-.165.165h-2.835c-.09,0-.165-.09-.165-.165v-26.0701h-.09l-5.325,26.0701c0,.09-.135.165-.21.165h-3.48c-.09,0-.21-.09-.21-.165h-.015ZM295.9962,213.9609v-4.125s-.045-.09-.09-.09h-2.19c-.09,0-.165-.09-.165-.165v-.945c0-.09.09-.165.165-.165h5.925c.09,0,.165.09.165.165v.945c0,.09-.09.165-.165.165h-2.19s-.09.045-.09.09v4.125c0,.09-.09.165-.165.165h-1.035c-.09,0-.165-.09-.165-.165h0ZM304.7563,214.0059l-2.19-4.59s-.09-.045-.09.045v4.515c0,.09-.09.165-.165.165h-.99c-.09,0-.165-.09-.165-.165v-5.325c0-.09.09-.165.165-.165h2.1c.09,0,.135.045.165.135l1.98,4.08s.045.045.09,0l1.98-4.08c.045-.09.09-.135.165-.135h2.055c.09,0,.165.09.165.165v5.325c0,.09-.09.165-.165.165h-.99c-.09,0-.165-.09-.165-.165v-4.515c0-.09-.045-.09-.09-.045l-2.145,4.59c-.045.09-.09.135-.165.135h-1.38c-.09,0-.135-.045-.165-.135h0Z"/>
</svg>