<?xml version="1.0" encoding="UTF-8"?>
<svg id="Layer_1" xmlns="http://www.w3.org/2000/svg" version="1.1" xmlns:i="http://ns.adobe.com/AdobeIllustrator/10.0/" viewBox="0 0 511.5 561.1022">
  <!-- Generator: Adobe Illustrator 29.5.0, SVG Export Plug-In . SVG Version: 2.1.0 Build 137)  -->
  <defs>
    <style>
      .st0 {
        fill: #fff;
      }

      .st1, .st2 {
        fill: #da291c;
      }

      .st2 {
        fill-rule: evenodd;
      }
    </style>
  </defs>
  <g>
    <path class="st1" d="M246.3745,504.1371l-1.6615,3.0856h265.1255l1.6615-3.0856H246.3745ZM0,507.2227h221.6896l1.8988-3.0856H1.6615l-1.6615,3.0856Z"/>
    <g>
      <polygon points="39.1636 539.503 4.5097 539.503 4.5097 523.3628 0 523.3628 0 560.3902 4.5097 560.3902 4.5097 543.0633 39.1636 543.0633 39.1636 560.3902 43.6733 560.3902 43.6733 523.3628 39.1636 523.3628 39.1636 539.503"/>
      <path d="M69.545,523.3628l-21.8367,37.0274h5.2218l4.7471-8.3074h29.6694l4.9845,8.3074h5.2218l-22.074-37.0274h-5.9339ZM60.0508,548.2851l12.5798-21.8367,12.8172,21.8367h-25.397Z"/>
      <path d="M123.8993,523.3628l-21.8367,37.0274h5.2218l4.7471-8.3074h29.6694l4.9845,8.3074h5.2218l-21.8367-37.0274h-6.1712ZM114.4051,548.2851l12.5798-21.8367,12.8172,21.8367h-25.397Z"/>
      <path d="M187.5104,540.215c-2.3736-.2374-4.2724-.4747-5.4592-.4747h-16.8522c-2.3736,0-4.2724-.4747-5.4592-1.1868-1.1868-.7121-1.8988-2.3735-1.8988-4.7471,0-1.1868.2374-2.3735.4747-3.323.2374-.9494,1.1868-1.6615,2.3735-2.1362,1.1868-.4747,3.0856-.9494,5.6965-1.1868,2.6109-.2374,5.2218-.2374,7.5954-.2374h1.6615c3.323,0,5.9339.2374,7.8327.4747,2.1362.2373,3.5603.4747,4.2724.9494s1.4242.9494,1.6615,1.8988c.4747.9494.4747,2.1362.4747,4.035h4.5097c0-3.323-.7121-5.9339-2.1362-7.5954-1.4241-1.6615-3.5603-2.6109-6.1713-2.8483s-4.7471-.4747-5.9339-.4747h-5.9338c-3.323,0-6.1713,0-8.7821.2374-2.6109.2373-4.9845.7121-6.8833,1.4241-1.8988.7121-3.3229,1.8988-4.035,3.5603-.7121,1.6615-1.1868,3.7977-1.1868,6.4086,0,3.0856.9494,5.4592,2.8483,6.8833,1.8988,1.4241,4.5097,1.8988,8.0701,1.8988l9.9689.2373h8.5448c2.8482,0,4.9845.4747,6.4086,1.1868,1.1868.7121,1.8988,2.3736,1.8988,5.2218,0,2.1362-.4747,3.5603-1.4241,4.5097-.9494.9494-2.8483,1.6615-5.4592,1.8989-2.6109.2373-5.9339.4747-9.7316.4747-2.3735,0-4.7471,0-7.1206-.2374-2.3736-.2373-4.5097-.4747-5.9339-.9494-1.4242-.4747-2.3736-1.1868-2.6109-2.1362-.2374-.9494-.4747-2.3736-.4747-4.5098v-.7121h-4.5097c0,4.035.7121,6.8833,1.8989,8.5448,1.1868,1.6615,3.3229,2.6109,6.1712,3.0856,2.8483.4747,4.9845.7121,6.4086.7121h9.0195c2.8483,0,5.4592,0,7.8327-.2373,2.3736-.2374,4.5097-.7121,6.1713-1.4241,1.6615-.7121,2.8482-1.8989,3.5603-3.323s.9494-3.323.9494-5.6965c0-3.323-.7121-5.9339-2.1362-7.358-1.8988-1.8988-3.7977-2.6109-6.1712-2.8482Z"/>
      <polygon points="224.3005 560.3902 228.8102 560.3902 228.8102 543.3006 258.2422 543.3006 258.2422 539.503 228.8102 539.503 228.8102 527.1605 259.6663 527.1605 259.6663 523.3628 224.3005 523.3628 224.3005 560.3902"/>
      <polygon points="311.1724 527.1605 329.9234 527.1605 329.9234 560.3902 334.4331 560.3902 334.4331 527.1605 353.1842 527.1605 353.1842 523.3628 311.1723 523.3628 311.1724 527.1605"/>
      <polygon points="361.729 543.0633 392.8225 543.0633 392.8225 539.503 361.729 539.503 361.729 527.1605 394.0093 527.1605 394.0093 523.3628 357.2193 523.3628 357.2193 560.3902 394.484 560.3902 394.484 556.5925 361.729 556.5925 361.729 543.0633"/>
      <path d="M420.3557,523.3628l-21.8367,37.0274h5.2218l4.7471-8.3074h29.6694l4.9845,8.3074h5.2218l-21.8368-37.0274h-6.1711ZM410.8615,548.2851l12.5798-21.8367,12.8172,21.8367h-25.3969Z"/>
      <polygon points="504.3794 523.3628 482.068 555.1684 459.9939 523.3628 452.6359 523.3628 452.6359 560.3902 457.1456 560.3902 457.1456 527.1605 480.1691 560.3902 483.9668 560.3902 506.9903 527.1605 506.9903 560.3902 511.5 560.3902 511.5 523.3628 504.3794 523.3628"/>
      <polygon points="267.4991 530.7208 269.8726 534.5185 277.7053 528.5846 277.7053 560.3902 282.2151 560.3902 282.2151 523.3628 277.7053 523.3628 267.4991 530.7208"/>
    </g>
    <g>
      <path d="M67.0729,421.7312h-3.8037c-3.7131,0-5.3432,1.0868-7.7884,5.1621l-20.2861,32.8744-8.4224-32.5121c-.9962-3.8942-2.083-5.4338-6.3394-5.4338h-3.1697c-4.1659,0-6.7922,2.4452-7.6073,6.7922L.2374,481.5028c-.7245,3.9848,1.0868,6.0677,4.5282,6.0677h1.449c3.6225,0,5.2527-1.8113,5.8866-5.7055l7.6073-42.7458,7.3356,28.6179c.6339,2.898,1.1773,4.7998,6.7017,4.7998,4.6187,0,5.7055-1.6301,7.3356-4.2565l17.9315-29.433-7.6073,42.7458c-.7245,4.0753,1.0868,6.0677,4.4376,6.0677h1.5396c3.6225,0,5.2527-1.9018,5.8866-5.7055l9.328-53.2511c.8151-4.2565-1.2679-6.9734-5.5244-6.9734h0Z"/>
      <path d="M121.7955,459.5865c-.4528-12.86-9.1469-22.2785-23.8181-22.2785-16.7542,0-26.9878,13.675-26.535,28.6179.5434,13.675,9.9619,22.4596,23.8181,22.4596,17.207-.0906,26.9878-13.8562,26.535-28.7991ZM95.351,478.967c-7.879,0-12.86-5.7055-13.1316-13.4939-.3622-10.0525,6.2488-18.9277,15.6674-18.9277,7.245,0,12.9505,5.7055,13.2222,13.5845.2717,10.5959-6.3394,18.8371-15.758,18.8371Z"/>
      <path d="M157.4666,437.308c-6.9734,0-12.4977,3.4414-16.2108,9.2374.3622-6.6111-3.2603-8.5129-6.9734-8.5129-1.7207,0-3.0791.4528-3.1697.6339l-7.6073,43.0175c-.7245,4.4376,1.7207,5.7055,4.981,5.7055h1.3584c3.532,0,4.981-1.449,5.7055-5.7055l4.5282-25.8105c3.2603-5.7055,6.8828-8.4224,12.4977-8.4224s8.9657,3.3508,9.0563,8.8752c.0906,1.449-.2717,3.2603-.5434,5.4338l-3.532,19.9239c-.7245,4.4376,1.8113,5.7055,4.981,5.7055h1.3584c3.532,0,4.981-1.449,5.7055-5.7055l3.8943-22.0068c.4528-2.4452.7245-4.6187.634-6.6111-.2717-9.2374-6.43-15.758-16.6636-15.758h0Z"/>
      <path d="M368.2287,437.308c-5.7055,0-9.9619,3.2603-12.86,9.2374.4528-6.6111-3.1697-8.5129-6.8828-8.5129-1.8113,0-3.0792.4528-3.1697.6339l-7.6979,43.0175c-.7245,4.4376,2.1735,5.7055,5.4338,5.7055h1.3584c3.0792,0,4.5282-1.449,5.3432-5.7055l2.5358-14.3995c1.9018-11.2298,6.0677-19.0182,12.7694-19.0182,3.2602,0,5.3432,1.3584,6.7017,2.898.1811.1811,5.2526-1.8113,5.0715-7.7884-.2717-3.7131-3.9848-6.0677-8.6035-6.0677Z"/>
      <path d="M425.0407,438.0325c-4.7093,0-7.3356,2.2641-8.8752,8.2412-2.9886-5.6149-9.1468-9.0563-16.3014-9.0563-15.2146,0-25.8105,13.5845-25.8105,28.9802,0,12.6788,7.7884,22.0974,20.105,22.0974,7.5167,0,13.3128-3.0791,17.0258-9.328-.5434,6.5205.7245,8.5129,5.4338,8.5129,4.1659,0,5.5243-1.5396,5.9771-6.1583.5434-8.5129,3.4414-22.3691,6.7922-41.8401,0-.3623-1.9018-1.449-4.347-1.449ZM396.785,478.967c-7.4262,0-11.6827-4.7093-11.6827-13.0411,0-9.7808,5.7055-19.5616,16.3014-19.5616,8.6035,0,12.226,6.3394,12.226,13.3128,0,8.7846-5.9771,19.2899-16.8447,19.2899Z"/>
      <path d="M495.2483,437.308c-8.3318,0-13.8561,4.2565-17.7503,10.5053-1.9018-6.6111-7.6073-10.5053-14.8524-10.5053-6.3394,0-11.8637,2.9886-15.6674,8.6941.1811-6.0677-3.3508-7.879-6.9734-7.879-1.8113,0-3.0792.4528-3.1697.6339l-7.6073,43.0175c-.7245,4.4376,1.7207,5.7055,4.981,5.7055h1.3584c3.0792,0,4.981-1.2679,5.7055-5.7055l4.7093-26.7161c3.4414-5.3432,6.7017-7.6073,11.7732-7.6073,4.981,0,8.0601,3.7131,8.0601,9.328,0,.9056-.0905,1.9018-.2717,2.9886l-3.8037,22.0068c-.7245,4.4376,1.8113,5.7055,4.981,5.7055h1.2679c3.0792,0,5.0715-1.3584,5.7961-5.7055l4.7093-26.7161c3.4414-5.3432,6.7017-7.6073,11.7732-7.6073,4.7998,0,8.3318,2.898,8.3318,8.8752,0,1.449-.2717,3.2603-.634,5.4338l-3.532,19.9239c-.7245,4.4376,1.7207,5.7055,4.981,5.7055h1.3584c3.532,0,4.981-1.449,5.7055-5.7055l3.8942-22.0068c.4528-2.4452.634-4.6187.634-6.6111.0905-9.6902-6.43-15.758-15.758-15.758Z"/>
      <path d="M227.1487,458.862c0-6.7017-1.3584-11.1393-4.347-15.0335-3.2603-4.1659-9.328-6.7017-16.3919-6.7017-21.3729,0-29.0707,15.758-29.0707,29.433,0,13.0411,9.4186,21.7351,23.9086,21.7351s22.6408-6.43,22.6408-11.5921c0-3.4414-2.4452-4.6187-5.2526-4.8904-3.8037,4.8904-9.0563,7.245-16.2108,7.245-6.3394,0-13.8561-2.4452-14.3995-13.7656h32.8744c3.532.0906,6.2488-1.9018,6.2488-6.43ZM216.5528,457.3224h-27.4406c2.6263-6.9734,8.6941-11.3204,16.3919-11.3204,3.8942,0,6.8828,1.0868,8.8752,3.2603,1.7207,1.9924,2.3546,4.7093,2.1735,8.0601Z"/>
      <path d="M329.7077,452.2509h-19.5616c-2.3546,0-3.4414.5434-4.1659,1.2679-1.1773,1.2679-1.8113,4.1659-1.8113,5.4338.0905,1.9924,1.8113,3.1697,4.981,3.1697h13.8561c-1.9018,9.6902-8.0601,16.3919-18.656,16.3919-11.1392,0-18.5654-7.0639-19.0182-19.1088-.5434-15.124,9.5091-27.6217,23.7275-27.6217,8.3318,0,14.8524,4.4376,17.4787,10.3242.3623.4528,8.0601.4528,7.7884-6.1583-.0905-2.3546-1.449-5.1621-3.9848-7.5167-4.0753-4.0753-11.7732-7.6073-22.0068-7.6073-14.309,0-25.6293,7.879-31.5159,19.2899,0-.0906-.0906-.0906-.0906-.0906-1.1773-1.5396-3.0791-2.2641-4.981-2.2641-3.1697,0-5.2526.9962-8.3318,6.43l-15.2146,26.7161-5.7055-26.6255c-1.0868-4.981-2.898-6.5205-6.0677-6.5205-3.7131,0-6.7017,2.7169-6.6111,3.3508l10.8676,43.0175-11.2298,18.4749c-1.1773,1.9924-1.2679,4.6187,2.9886,4.6187h2.3546c4.4376,0,5.8866-2.7169,8.0601-6.43l30.6103-51.8021c-.9056,3.6225-1.3584,7.5167-1.1773,11.5015.5434,17.3881,12.3166,27.8934,29.5235,27.8934,8.1507,0,14.6712-3.0791,18.2937-7.7884-.2717,5.0715,2.4452,7.0639,6.0677,7.0639,1.9924,0,3.4414-.6339,3.4414-.9962l4.981-27.8934c.8151-4.347-.8151-6.5205-4.8904-6.5205Z"/>
    </g>
  </g>
  <g>
    <path class="st2" d="M389.5,279.5c-27,45.5-76.5,76.5-133.5,76.5-42,0-80-17-108-44h43.5s125-220,125.5-221,.5-1.5-.5-1.5h-51c-1,0-1,.5-1.5.5-.5.5-70.5,122.5-70.5,122.5h-92c-.5-4-.5-7.5-.5-11.5,0-85.5,69.5-155,155-155,43.5,0,83,18,111.5,47.5-12,20.5-67,114-74.5,127.5-4.5-10-24-8-34-8-4.5,7.5-25,46.5-25,46.5h22c10,0,11,10.5,7,17-4,6.5-20.5,35.5-20.5,35.5h52.5s64.5-113,101.5-177c5,10.5,9,22,11.5,33.5,12.5-8.5,27.5-13.5,44-13.5h0C430.5,66,351,0,256,0,145,0,55,90,55,201c0,4,0,8,.5,11.5h-26c-1.5,0-2,1-3,2-.5,1-23.5,42-24.5,43-.5,1-.5,1.5.5,1.5h61c25,82.5,101.5,142.5,192.5,142.5,72.5,0,135.5-38,171-95.5-15-4.5-28-14-37.5-26.5ZM112,259h53.5l-26,44.5c-11-13-20.5-28-27.5-44.5Z"/>
    <g>
      <circle class="st0" cx="451.25" cy="232.75" r="59.25"/>
      <path class="st1" d="M510.5,232.75c0,32.7257-26.5243,59.25-59.25,59.25s-59.25-26.5243-59.25-59.25c0-9.0407,2.0173-17.5583,5.6037-25.1794-2.3909,6.052-3.5117,12.104-3.5117,17.7078,0,26.8231,21.6677,30.7084,30.8578,30.6337,14.0467-.1494,30.4095-7.0233,44.232-19.7251,0,0-1.7932,10.012-2.3162,13.0754-.523,2.9887,1.4196,5.6037,4.4083,5.6037h1.1955c3.0634,0,5.3049-2.5404,5.8279-5.6037l5.006-27.9439c.5977-3.1381-1.4196-5.6037-4.5577-5.6037h-27.9439c-3.1381,0-5.9773,1.6438-6.5003,4.7818,0,.1494-.2242,1.046-.2242,1.2702-.4483,2.9887,1.6438,5.2301,4.6324,5.2301h14.5697l-.6724.6724c-10.0867,9.489-22.5643,14.7191-32.8752,14.7191-10.2361,0-21.7424-6.5003-21.7424-21.07,0-30.2601,28.3922-47.8184,43.2607-47.8184,32.651,0,59.25,26.5243,59.25,59.25Z"/>
    </g>
  </g>

</svg>