<?xml version="1.0" encoding="UTF-8"?>
<svg id="Layer_1" xmlns="http://www.w3.org/2000/svg" version="1.1" xmlns:i="http://ns.adobe.com/AdobeIllustrator/10.0/" viewBox="0 0 1417.3682 364.874">
  <!-- Generator: Adobe Illustrator 29.5.1, SVG Export Plug-In . SVG Version: 2.1.0 Build 141)  -->
  <defs>
    <style>
      .st0 {
        fill: #ff8000;
      }
    </style>
  </defs>
  <path d="M746,171.7c0,5.7-2.5,9.8-10.2,9.8h-49.5c-6.3,0-10-1.8-10-7.7s2.5-8.9,10-8.9h59.7v6.8ZM964.2,148.3v-6.6c0-5.9,2.5-9.8,10.5-9.8h49.5c6.8,0,10.2,2,10.2,8.4,0,5.4-2.7,7.9-9.8,7.9h-60.3999v.1ZM1094.1,104.5v104.4h50v-76h40.9c13.8,0,20.9,4.3,20.9,17.7v58.4h49.9v-62.5c0-29.3-16.1-42-61.8-42h-99.9ZM971,104.5c-40.2,0-56.3,13.4-56.3,43.6v20.7c0,26.1,16.1,40.2,52.4,40.2h105.8v-27.5h-95.8c-9.5,0-12.7-2.7-12.7-9.8v-4.3h75.6c26.1,0,40.9-8.2,40.9-27.7v-4.8c0-17.7-8.8-30.4-53.1-30.4h-56.8ZM810.5,208.9h49.9v-68.6c0-4.5,1.8-7.5,8-7.5h38.8v-28.4h-55.6c-29.7,0-41.1,11.1-41.1,29.7v74.8ZM639.8,104.5v27.5h93.8c9.3,0,12.5,3.2,12.5,10v4h-75.4c-31.6,0-41.1,13-41.1,29.5v4.1c0,22.9,18.4,29.3,54.5,29.3h55.4c39.3,0,56.3-8.9,56.3-39.7v-24.3c0-26.1-16.1-40.4-52.7-40.4h-103.3ZM341,162.6c0,32.9,16.8,46.3,60.2,46.3h95.1v-28.2h-87.9c-10.4,0-17.5-4.8-17.5-19.8v-9.1c0-13.4,6.6-19.1,17.3-19.1h88.1v-28.4h-96.5c-42.7,0-58.8,17.9-58.8,46.5v11.8ZM511.3,87.9v121h108.5v-28.4h-58.6v-92.6h-49.9ZM199.6,155.6v-67.7h-28.2c-17.5,0-27.5,7-37.9,15.2L0,208.9h60.2l88.6-71.7v71.7h41.5l85.8-72.2v72.2h50.9v-121h-27.7c-15,0-25.4,6.1-35.9,14.8l-63.8,52.9Z"/>
  <path class="st0" d="M1375.9,0c-27.9,0-67.2,8.3-109.7,23.9-38,13.8-74.5,31.8-108.6,53.5,22.2-9.1,66.1-19.4,102.3-19.4,48.8,0,83.6,18.7,32.2,84.2C1443.4,43.2,1439.2999.1,1375.9,0"/>
  <g>
    <path d="M293.6159,364.2041h-10.2163v-48.9717h28.0698v8.5078h-17.8535v12.6279h16.6143v8.4746h-16.6143v19.3613Z"/>
    <path d="M393.1782,339.6514c0,3.7734-.4692,7.207-1.4072,10.2998-.9375,3.0928-2.3613,5.7559-4.2705,7.9893-1.9092,2.2324-4.3267,3.9473-7.252,5.1416-2.9258,1.1943-6.3867,1.792-10.3838,1.792s-7.4585-.5977-10.3838-1.792c-2.9258-1.1943-5.3428-2.9092-7.252-5.1416-1.9092-2.2334-3.333-4.9014-4.2705-8.0059-.938-3.1035-1.4072-6.5537-1.4072-10.3506,0-5.0684.832-9.4844,2.4956-13.2471s4.2256-6.6826,7.6875-8.7598c3.4609-2.0762,7.8599-3.1152,13.1973-3.1152,5.3145,0,9.6855,1.0391,13.1138,3.1152,3.4277,2.0771,5.9731,5.0029,7.6372,8.7764,1.6631,3.7734,2.4956,8.2061,2.4956,13.2979ZM357.4375,339.6514c0,3.416.4297,6.3584,1.29,8.8262.8594,2.4678,2.2046,4.3662,4.0361,5.6943,1.8306,1.3291,4.1978,1.9932,7.1011,1.9932,2.9478,0,5.3369-.6641,7.168-1.9932,1.8311-1.3281,3.1655-3.2266,4.0029-5.6943s1.2563-5.4102,1.2563-8.8262c0-5.1357-.9604-9.1777-2.8809-12.126-1.9209-2.9473-5.0806-4.4209-9.4795-4.4209-2.9258,0-5.3091.6641-7.1514,1.9932-1.8423,1.3281-3.1934,3.2266-4.0527,5.6943-.8604,2.4668-1.29,5.4209-1.29,8.8594Z"/>
    <path d="M445.4215,315.2324c4.4434,0,8.1113.5361,11.0034,1.6084,2.8916,1.0713,5.041,2.6904,6.4482,4.8564,1.4067,2.166,2.1099,4.9023,2.1099,8.207,0,2.2324-.4243,4.1865-1.2725,5.8613-.8491,1.6748-1.9653,3.0928-3.3496,4.2539-1.3853,1.1611-2.8809,2.1104-4.4888,2.8477l14.4033,21.3369h-11.5225l-11.6904-18.792h-5.5269v18.792h-10.3838v-48.9717h14.2695ZM444.6847,323.7402h-3.1489v13.2314h3.3496c3.439,0,5.9009-.5752,7.3862-1.7256,1.4849-1.1494,2.2275-2.8408,2.2275-5.0742,0-2.3223-.7988-3.9746-2.395-4.957-1.5972-.9824-4.0698-1.4746-7.4194-1.4746Z"/>
    <path d="M526.0538,364.2041l-11.7905-38.4199h-.3018c.0444.916.1172,2.2939.2178,4.1367.1006,1.8418.1953,3.8018.2847,5.8779.0889,2.0771.1343,3.9531.1343,5.6279v22.7773h-9.2788v-48.9717h14.1357l11.5894,37.4492h.2012l12.293-37.4492h14.1353v48.9717h-9.6802v-23.1797c0-1.541.0278-3.3164.0835-5.3262s.1284-3.9238.2178-5.7441c.0889-1.8193.1562-3.1875.2012-4.1035h-.3018l-12.6279,38.3535h-9.5127Z"/>
    <path d="M637.7691,315.2324v31.6875c0,3.3721-.7427,6.4141-2.2275,9.1279-1.4849,2.7129-3.7295,4.8623-6.7324,6.4473-3.0039,1.5859-6.7832,2.3789-11.3384,2.3789-6.4766,0-11.4111-1.6523-14.8052-4.958-3.395-3.3047-5.0918-7.6816-5.0918-13.1299v-31.5537h10.3506v29.9795c0,4.042.8257,6.8779,2.4785,8.5078,1.6523,1.6299,4.0977,2.4453,7.3359,2.4453,2.2773,0,4.125-.3906,5.5435-1.1729,1.418-.7812,2.4619-1.9873,3.1318-3.6172s1.0049-3.707,1.0049-6.2305v-29.9121h10.3501Z"/>
    <path d="M677.5578,364.2041v-48.9717h10.3838v40.3965h19.8628v8.5752h-30.2466Z"/>
    <path d="M777.3393,364.2041l-3.5508-11.6572h-17.8535l-3.5508,11.6572h-11.1875l17.2842-49.1729h12.6953l17.3506,49.1729h-11.1875ZM771.31,343.8379l-3.5508-11.3887c-.2236-.7588-.5195-1.7354-.8877-2.9307-.3682-1.1943-.7363-2.4111-1.1055-3.6514-.3682-1.2393-.6641-2.3164-.8877-3.2324-.2227.916-.5303,2.0498-.9209,3.4004-.3906,1.3516-.7646,2.6289-1.1221,3.835s-.6143,2.0664-.7705,2.5791l-3.5166,11.3887h12.7617Z"/>
    <path d="M893.1749,364.2041h-10.3506v-28.3379c0-.7812.0117-1.7471.0342-2.8975.0215-1.1494.0547-2.333.1006-3.5508.0439-1.2168.0889-2.3164.1338-3.2988-.2461.29-.7432.7871-1.4912,1.4902s-1.4453,1.335-2.0928,1.8926l-5.6279,4.5215-4.9902-6.2295,15.7764-12.5615h8.5078v48.9717Z"/>
    <path d="M1005.5793,364.2041h-10.3838v-40.3291h-13.2979v-8.6426h36.9795v8.6426h-13.2979v40.3291Z"/>
    <path d="M1082.7204,364.2041h-28.2041v-48.9717h28.2041v8.5078h-17.8203v10.7529h16.5811v8.5078h-16.5811v12.6279h17.8203v8.5752Z"/>
    <path d="M1152.9633,364.2041l-3.5508-11.6572h-17.8535l-3.5508,11.6572h-11.1875l17.2842-49.1729h12.6953l17.3506,49.1729h-11.1875ZM1146.934,343.8379l-3.5508-11.3887c-.2236-.7588-.5195-1.7354-.8877-2.9307-.3682-1.1943-.7363-2.4111-1.1055-3.6514-.3682-1.2393-.6641-2.3164-.8877-3.2324-.2227.916-.5303,2.0498-.9209,3.4004-.3906,1.3516-.7646,2.6289-1.1221,3.835s-.6143,2.0664-.7705,2.5791l-3.5166,11.3887h12.7617Z"/>
    <path d="M1219.9291,364.2041l-11.791-38.4199h-.3018c.0449.916.1172,2.2939.2178,4.1367.1006,1.8418.1953,3.8018.2852,5.8779.0889,2.0771.1338,3.9531.1338,5.6279v22.7773h-9.2783v-48.9717h14.1357l11.5889,37.4492h.2012l12.293-37.4492h14.1357v48.9717h-9.6807v-23.1797c0-1.541.0283-3.3164.084-5.3262s.1279-3.9238.2178-5.7441c.0889-1.8193.1562-3.1875.2012-4.1035h-.3018l-12.6279,38.3535h-9.5127Z"/>
  </g>

</svg>